#N canvas 532 356 1148 631 10;
#N canvas 177 65 1384 957 drag_conrol 0;
#X floatatom 836 226 0 0 0 0 - - - 0;
#X floatatom 816 253 0 0 0 0 - - - 0;
#X floatatom 843 194 0 0 0 0 - - - 0;
#X obj 818 172 ctlin;
#X text 849 252 value;
#X text 874 195 channel;
#X text 862 171 (all controllers \, omni);
#X text 867 226 controller #;
#X obj 774 301 pack 0 0 0;
#X floatatom 876 755 5 0 0 0 - - - 0;
#X floatatom 909 779 3 0 0 0 - - - 0;
#X obj 894 824 ctlout;
#X text 884 740 value;
#X text 932 776 controller #;
#X obj 932 396 vsl 15 128 127 0 0 0 empty empty empty 0 -9 0 10 #fcfcfc #000000 #000000 0 1;
#X obj 781 556 hsl 128 15 0 127 0 0 empty empty empty -2 -8 0 10 #fcfcfc #000000 #000000 0 1;
#X obj 788 709 hsl 128 15 0 127 0 0 empty empty empty -2 -8 0 10 #fcfcfc #000000 #000000 0 1;
#X obj 785 737 t f b, f 6;
#X obj 110 278 noteout;
#X floatatom 83 250 3 0 0 0 - - - 0;
#X floatatom 127 250 3 0 0 0 - - - 0;
#X text 76 225 note;
#X text 124 232 velocity;
#X floatatom 137 72 0 0 0 0 - - - 0;
#X obj 122 41 notein;
#X floatatom 100 92 0 0 0 0 - - - 0;
#X text 167 76 velocity;
#X text 172 40 (omni);
#X text 106 109 note;
#X obj 803 276 t b f;
#X floatatom 166 278 5 0 0 0 - - - 0;
#X floatatom 1026 335 5 0 0 0 - - - 0;
#X text 1064 334 MIDI output channel;
#X floatatom 796 580 5 0 0 0 - - - 0;
#X obj 1026 313 i 1;
#X floatatom 778 404 5 0 0 0 - - - 0;
#X floatatom 830 406 5 0 0 0 - - - 0;
#X obj 796 433 i;
#X obj 839 429 i;
#X floatatom 794 466 5 0 0 0 - - - 0;
#X floatatom 848 461 5 0 0 0 - - - 0;
#X obj 1026 355 s channel;
#X obj 149 257 r channel;
#X obj 927 803 r channel;
#X text 934 370 y;
#X text 758 554 x, f 2;
#X obj 732 415 t b b;
#X obj 783 661 * 1;
#X floatatom 824 665 5 0 0 0 - - - 0;
#X floatatom 954 671 5 0 0 0 - - - 0;
#X obj 783 686 + 30;
#X obj 774 329 route 1;
#X obj 786 536 hsl 128 15 0 127 0 0 empty empty empty -2 -8 0 10 #fcfcfc #000000 #000000 0 1;
#X obj 900 396 vsl 15 128 127 0 0 0 empty empty empty 0 -9 0 10 #fcfcfc #000000 #000000 0 1;
#X obj 774 367 route 20 1;
#X floatatom 374 187 5 0 0 0 - - - 0;
#X obj 367 228 sel 0;
#X obj 407 326 spigot;
#X obj 308 330 spigot;
#X msg 331 288 0;
#X msg 364 290 1;
#X obj 368 379 bng 16 250 50 0 empty empty empty 0 -8 0 10 #fcfcfc #000000 #000000;
#X obj 445 265 == 0;
#X text 408 347 Note-off;
#X text 285 356 Note-on;
#X obj 433 217 bng 16 250 50 0 empty empty empty 0 -8 0 10 #fcfcfc #000000 #000000;
#X obj 488 716 vsl 30 136 0 127 0 0 empty empty empty 0 -9 0 10 #0400ff #ffffff #000000 0 1;
#X obj 138 150 sel 0;
#X msg 128 179 0;
#X obj 147 558 vsl 16 136 0 127 0 0 empty empty empty 0 -9 0 10 #fcfcfc #000000 #000000 0 1;
#X obj 259 716 vsl 16 136 0 8 0 0 empty empty empty 0 -9 0 10 #fcfcfc #000000 #000000 0 1;
#X floatatom 259 860 5 0 0 0 - - - 0;
#X floatatom 147 700 5 0 0 0 - - - 0;
#X obj 383 718 vsl 16 136 0 127 0 0 empty empty empty 0 -9 0 10 #fcfcfc #000000 #000000 0 1;
#X floatatom 383 862 5 0 0 0 - - - 0;
#X floatatom 488 860 5 0 0 0 - - - 0;
#N canvas 895 110 450 300 saved_velocity 0;
#X msg 269 132 set \$1;
#X msg 254 167 30;
#X obj 153 105 loadbang;
#X obj 133 196 i;
#X obj 153 130 t b b;
#X obj 269 104 r velocity;
#X obj 249 48 inlet;
#X obj 255 270 outlet;
#X obj 133 223 s default_velocity;
#X connect 0 0 1 0;
#X connect 1 0 3 1;
#X connect 1 0 7 0;
#X connect 2 0 4 0;
#X connect 3 0 8 0;
#X connect 4 0 3 0;
#X connect 4 1 1 0;
#X connect 5 0 0 0;
#X connect 6 0 1 0;
#X restore 171 186 pd saved_velocity;
#X text 118 529 Note Velocity;
#X obj 147 738 s velocity;
#X obj 124 473 r default_velocity;
#X obj 540 107 route 0;
#X msg 541 133 -1;
#X msg 576 132 1;
#X obj 559 157 +;
#X obj 341 310 tgl 16 0 empty empty empty 0 -8 0 10 #fcfcfc #000000 #000000 0 1;
#X obj 627 119 < 0;
#X obj 627 142 sel 1;
#X msg 627 165 0;
#X obj 338 206 t f f;
#X obj 530 322 spigot;
#X obj 563 212 > 1;
#X obj 566 241 sel 1;
#X msg 543 272 0;
#X msg 577 282 1;
#X obj 531 348 bng 16 250 50 0 empty empty empty 0 -8 0 10 #fcfcfc #000000 #000000;
#X obj 554 297 tgl 16 0 empty empty empty 0 -8 0 10 #fcfcfc #000000 #000000 0 1;
#X obj 234 119 t f f;
#X obj 396 265 pipe 5;
#X obj 580 261 pipe 10;
#X text 439 66 Count notes playing and filter fret button changes from triggering a drag reset.;
#X obj 360 263 r lb;
#X obj 1025 224 loadbang;
#X obj 1025 244 s lb;
#X obj 1026 292 r lb;
#X obj 640 264 r lb;
#X obj 633 197 bng 16 250 50 0 empty empty empty 0 -8 0 10 #fcfcfc #000000 #000000;
#X obj 684 145 bng 16 250 50 0 empty empty empty 0 -8 0 10 #fcfcfc #000000 #000000;
#X floatatom 559 184 5 0 0 0 - - - 0;
#X text 287 158 Don't retrigger if multi-touched (disabled);
#X obj 781 601 t b f;
#X obj 783 622 -;
#X floatatom 743 657 5 0 0 0 - - - 0;
#X obj 783 642 abs;
#X floatatom 1126 593 5 0 0 0 - - - 0;
#X floatatom 1159 617 3 0 0 0 - - - 0;
#X text 1134 578 value;
#X text 1182 614 controller #;
#X obj 1038 547 hsl 128 15 0 127 0 0 empty empty empty -2 -8 0 10 #fcfcfc #000000 #000000 0 1;
#X obj 1035 575 t f b, f 6;
#X obj 1033 499 * 1;
#X floatatom 1074 503 5 0 0 0 - - - 0;
#X floatatom 1234 509 5 0 0 0 - - - 0;
#X obj 1033 524 + 30;
#X obj 1031 439 t b f;
#X obj 1033 460 -;
#X floatatom 993 495 5 0 0 0 - - - 0;
#X obj 1033 480 abs;
#X obj 537 539 hsl 136 15 0 8 0 0 empty empty empty -2 -8 0 10 #fcfcfc #000000 #000000 0 1;
#X obj 537 586 hsl 136 15 0 127 0 0 empty empty empty -2 -8 0 10 #fcfcfc #000000 #000000 0 1;
#X obj 536 628 hsl 136 30 0 127 0 0 empty empty empty -2 -8 0 10 #0400ff #ffffff #000000 0 1;
#X floatatom 683 540 5 0 0 0 - - - 0;
#X floatatom 684 587 5 0 0 0 - - - 0;
#N canvas 853 111 450 300 x_saved_drag_mult 0;
#X msg 269 132 set \$1;
#X msg 254 167 2.54815;
#X obj 153 105 loadbang;
#X obj 153 130 t b b;
#X obj 255 270 outlet;
#X obj 254 107 t b f;
#X obj 133 196 f;
#X obj 255 83 r x_drag_mult;
#X obj 129 223 s x_default_drag_mult;
#X connect 0 0 1 0;
#X connect 1 0 4 0;
#X connect 1 0 6 1;
#X connect 2 0 3 0;
#X connect 3 0 6 0;
#X connect 3 1 1 0;
#X connect 5 0 1 0;
#X connect 5 1 0 0;
#X connect 6 0 8 0;
#X connect 7 0 5 0;
#X restore 826 642 pd x_saved_drag_mult;
#N canvas 658 187 450 300 x_saved_drag_start 0;
#X msg 269 132 set \$1;
#X msg 254 167 0;
#X obj 153 105 loadbang;
#X obj 133 196 i;
#X obj 153 130 t b b;
#X obj 255 270 outlet;
#X obj 254 107 t b f;
#X obj 255 83 r x_drag_start;
#X obj 129 223 s x_default_drag_start;
#X connect 0 0 1 0;
#X connect 1 0 3 1;
#X connect 1 0 5 0;
#X connect 2 0 4 0;
#X connect 3 0 8 0;
#X connect 4 0 3 0;
#X connect 4 1 1 0;
#X connect 6 0 1 0;
#X connect 6 1 0 0;
#X connect 7 0 6 0;
#X restore 953 649 pd x_saved_drag_start;
#N canvas 853 111 450 300 y_saved_drag_mult 0;
#X msg 269 132 set \$1;
#X msg 254 167 2.31111;
#X obj 153 105 loadbang;
#X obj 153 130 t b b;
#X obj 255 270 outlet;
#X obj 254 107 t b f;
#X obj 133 196 f;
#X obj 255 83 r y_drag_mult;
#X obj 129 223 s y_default_drag_mult;
#X connect 0 0 1 0;
#X connect 1 0 4 0;
#X connect 1 0 6 1;
#X connect 2 0 3 0;
#X connect 3 0 6 0;
#X connect 3 1 1 0;
#X connect 5 0 1 0;
#X connect 5 1 0 0;
#X connect 6 0 8 0;
#X connect 7 0 5 0;
#X restore 1076 480 pd y_saved_drag_mult;
#N canvas 658 187 450 300 y_saved_drag_start 0;
#X msg 269 132 set \$1;
#X msg 254 167 0;
#X obj 153 105 loadbang;
#X obj 133 196 i;
#X obj 153 130 t b b;
#X obj 255 270 outlet;
#X obj 254 107 t b f;
#X obj 255 83 r y_drag_start;
#X obj 129 223 s y_default_drag_start;
#X connect 0 0 1 0;
#X connect 1 0 3 1;
#X connect 1 0 5 0;
#X connect 2 0 4 0;
#X connect 3 0 8 0;
#X connect 4 0 3 0;
#X connect 4 1 1 0;
#X connect 6 0 1 0;
#X connect 6 1 0 0;
#X connect 7 0 6 0;
#X restore 1233 487 pd y_saved_drag_start;
#X text 407 538 X Drag Sensitivity;
#X text 443 585 X Drag Start;
#X text 442 637 X out (CC 20);
#X text 472 692 Y out (CC 1);
#X msg 1071 601 1;
#X msg 821 763 20;
#X text 229 690 Y Drag Sensitivity;
#X text 361 691 Y Drag Start;
#X obj 257 469 r y_default_drag_mult;
#X obj 401 469 r y_default_drag_start;
#X obj 258 913 s y_drag_mult;
#X obj 380 915 s y_drag_start;
#X obj 560 452 r x_default_drag_mult;
#X obj 567 477 r x_default_drag_start;
#X obj 650 564 s x_drag_mult;
#X obj 646 608 s x_drag_start;
#X connect 0 0 8 1;
#X connect 1 0 29 0;
#X connect 2 0 8 0;
#X connect 3 0 1 0;
#X connect 3 1 0 0;
#X connect 3 2 2 0;
#X connect 8 0 51 0;
#X connect 9 0 11 0;
#X connect 10 0 11 1;
#X connect 14 0 123 0;
#X connect 15 0 33 0;
#X connect 15 0 109 0;
#X connect 16 0 17 0;
#X connect 16 0 129 0;
#X connect 17 0 9 0;
#X connect 17 1 141 0;
#X connect 19 0 18 0;
#X connect 20 0 18 1;
#X connect 23 0 67 0;
#X connect 23 0 96 0;
#X connect 24 0 25 0;
#X connect 24 1 23 0;
#X connect 25 0 19 0;
#X connect 29 0 8 0;
#X connect 29 1 8 2;
#X connect 31 0 41 0;
#X connect 34 0 31 0;
#X connect 35 0 37 1;
#X connect 35 0 15 0;
#X connect 36 0 38 1;
#X connect 36 0 14 0;
#X connect 37 0 39 0;
#X connect 37 0 110 0;
#X connect 38 0 40 0;
#X connect 38 0 124 0;
#X connect 39 0 52 0;
#X connect 40 0 53 0;
#X connect 42 0 18 2;
#X connect 42 0 30 0;
#X connect 43 0 11 2;
#X connect 46 1 37 0;
#X connect 46 1 38 0;
#X connect 47 0 50 0;
#X connect 48 0 47 1;
#X connect 49 0 50 1;
#X connect 50 0 16 0;
#X connect 51 0 54 0;
#X connect 54 0 35 0;
#X connect 54 1 36 0;
#X connect 55 0 62 0;
#X connect 55 0 65 0;
#X connect 55 0 88 0;
#X connect 56 0 97 0;
#X connect 56 0 59 0;
#X connect 57 0 61 0;
#X connect 58 0 61 0;
#X connect 59 0 84 0;
#X connect 60 0 84 0;
#X connect 61 0 89 0;
#X connect 62 0 57 1;
#X connect 66 0 75 0;
#X connect 67 0 68 0;
#X connect 67 1 76 0;
#X connect 68 0 20 0;
#X connect 69 0 72 0;
#X connect 70 0 71 0;
#X connect 71 0 146 0;
#X connect 72 0 78 0;
#X connect 73 0 74 0;
#X connect 74 0 147 0;
#X connect 76 0 20 0;
#X connect 79 0 69 0;
#X connect 80 0 81 0;
#X connect 80 1 82 0;
#X connect 81 0 83 0;
#X connect 82 0 83 0;
#X connect 83 0 107 0;
#X connect 84 0 58 1;
#X connect 85 0 86 0;
#X connect 86 0 106 0;
#X connect 87 0 105 0;
#X connect 87 0 83 1;
#X connect 87 0 83 0;
#X connect 88 0 58 0;
#X connect 88 1 56 0;
#X connect 89 0 94 0;
#X connect 90 0 91 0;
#X connect 91 0 92 0;
#X connect 91 0 98 0;
#X connect 92 0 95 0;
#X connect 93 0 95 0;
#X connect 94 0 46 0;
#X connect 95 0 89 1;
#X connect 96 0 55 0;
#X connect 96 0 89 0;
#X connect 96 1 80 0;
#X connect 97 0 57 0;
#X connect 97 0 60 0;
#X connect 98 0 93 0;
#X connect 100 0 60 0;
#X connect 101 0 102 0;
#X connect 103 0 34 0;
#X connect 104 0 93 0;
#X connect 106 0 87 0;
#X connect 107 0 83 1;
#X connect 107 0 85 0;
#X connect 107 0 90 0;
#X connect 109 0 110 0;
#X connect 109 1 110 1;
#X connect 110 0 112 0;
#X connect 112 0 111 0;
#X connect 112 0 47 0;
#X connect 113 0 11 0;
#X connect 114 0 11 1;
#X connect 117 0 118 0;
#X connect 117 0 66 0;
#X connect 118 0 113 0;
#X connect 118 1 140 0;
#X connect 119 0 122 0;
#X connect 120 0 119 1;
#X connect 121 0 122 1;
#X connect 122 0 117 0;
#X connect 123 0 124 0;
#X connect 123 1 124 1;
#X connect 124 0 126 0;
#X connect 126 0 125 0;
#X connect 126 0 119 0;
#X connect 127 0 130 0;
#X connect 128 0 131 0;
#X connect 130 0 150 0;
#X connect 131 0 151 0;
#X connect 132 0 48 0;
#X connect 133 0 49 0;
#X connect 134 0 120 0;
#X connect 135 0 121 0;
#X connect 140 0 114 0;
#X connect 141 0 10 0;
#X connect 144 0 70 0;
#X connect 145 0 73 0;
#X connect 148 0 127 0;
#X connect 149 0 128 0;
#X coords 0 -1 1 1 619 400 1 100 500;
#X restore 58 45 pd drag_conrol;
#X text 761 194 Note Velocity: The midi note velocity sent for all notes.;
#X text 760 266 CC Drag Start: Set the initial CC starting value when a new drag is started.;
#X text 717 152 Setup: see README.md;
#X text 725 316 Note: Use cmd+s / ctrl+s to save slider values between sessions.;
#X text 760 226 CC Drag Sensitivity: Increase or decrease how fast the drag changes the CC output.;
#X text 718 121 Changes the Nova's default x/y CC output to a drag-based x/y CC output.;
#X coords 0 631 1 630 110 110 0;
