#N canvas 1 25 1330 997 10;
#N canvas 415 65 1265 957 drag_conrol 0;
#X floatatom 784 169 0 0 0 0 - - - 0;
#X floatatom 764 196 0 0 0 0 - - - 0;
#X floatatom 791 137 0 0 0 0 - - - 0;
#X obj 766 115 ctlin;
#X text 797 195 value;
#X text 822 138 channel;
#X text 810 114 (all controllers \, omni);
#X text 815 169 controller #;
#X obj 722 244 pack 0 0 0;
#X floatatom 824 694 5 0 0 0 - - - 0;
#X floatatom 857 718 3 0 0 0 - - - 0;
#X obj 842 763 ctlout;
#X text 832 679 value;
#X text 880 715 controller #;
#X obj 880 339 vsl 15 128 127 0 0 0 empty empty empty 0 -9 0 10 #fcfcfc #000000 #000000 0 1;
#X obj 729 499 hsl 128 15 0 127 0 0 empty empty empty -2 -8 0 10 #fcfcfc #000000 #000000 0 1;
#X obj 736 648 hsl 128 15 0 127 0 0 empty empty empty -2 -8 0 10 #fcfcfc #000000 #000000 0 1;
#X obj 733 676 t f b, f 6;
#X obj 110 278 noteout;
#X floatatom 83 250 3 0 0 0 - - - 0;
#X floatatom 127 250 3 0 0 0 - - - 0;
#X text 76 225 note;
#X text 124 232 velocity;
#X floatatom 137 72 0 0 0 0 - - - 0;
#X obj 122 41 notein;
#X floatatom 100 92 0 0 0 0 - - - 0;
#X text 167 76 velocity;
#X text 172 40 (omni);
#X text 106 109 note;
#X obj 751 219 t b f;
#X floatatom 166 278 5 0 0 0 - - - 0;
#X floatatom 974 278 5 0 0 0 - - - 0;
#X text 1012 277 MIDI output channel;
#X floatatom 744 523 5 0 0 0 - - - 0;
#X obj 974 256 i 1;
#X floatatom 726 347 5 0 0 0 - - - 0;
#X floatatom 778 349 5 0 0 0 - - - 0;
#X obj 744 376 i;
#X obj 787 372 i;
#X floatatom 742 409 5 0 0 0 - - - 0;
#X floatatom 796 404 5 0 0 0 - - - 0;
#X obj 974 298 s channel;
#X obj 149 257 r channel;
#X obj 875 742 r channel;
#X text 882 313 y;
#X text 700 497 x, f 2;
#X floatatom 694 571 5 0 0 0 - - - 0;
#X obj 876 511 t b f;
#X msg 769 702 1;
#X obj 680 358 t b b;
#X obj 730 549 expr 1.0*sqrt(($f2 -$f1)*($f2 - $f1) + ($f4 - $f3)*($f4 - $f3)), f 64;
#X obj 731 600 * 1;
#X floatatom 772 604 5 0 0 0 - - - 0;
#X floatatom 932 610 5 0 0 0 - - - 0;
#X obj 731 625 + 30;
#X obj 722 272 route 1;
#X obj 732 479 hsl 128 15 0 127 0 0 empty empty empty -2 -8 0 10 #fcfcfc #000000 #000000 0 1;
#X obj 848 339 vsl 15 128 127 0 0 0 empty empty empty 0 -9 0 10 #fcfcfc #000000 #000000 0 1;
#X obj 722 310 route 20 1;
#X floatatom 374 187 5 0 0 0 - - - 0;
#X obj 367 228 sel 0;
#X obj 407 326 spigot;
#X obj 308 330 spigot;
#X msg 331 288 0;
#X msg 364 290 1;
#X obj 368 379 bng 16 250 50 0 empty empty empty 0 -8 0 10 #fcfcfc #000000 #000000;
#X obj 445 265 == 0;
#X text 408 347 Note-off;
#X text 285 356 Note-on;
#X obj 433 217 bng 16 250 50 0 empty empty empty 0 -8 0 10 #fcfcfc #000000 #000000;
#X obj 524 555 vsl 30 136 0 127 0 0 empty empty empty 0 -9 0 10 #0400ff #ffffff #000000 0 1;
#X obj 138 150 sel 0;
#X msg 128 179 0;
#X obj 147 558 vsl 16 136 0 127 0 0 empty empty empty 0 -9 0 10 #fcfcfc #000000 #000000 0 1;
#X obj 275 556 vsl 16 136 0 8 0 0 empty empty empty 0 -9 0 10 #fcfcfc #000000 #000000 0 1;
#X floatatom 275 700 5 0 0 0 - - - 0;
#X floatatom 147 700 5 0 0 0 - - - 0;
#X obj 275 738 s drag_mult;
#X obj 400 556 vsl 16 136 0 127 0 0 empty empty empty 0 -9 0 10 #fcfcfc #000000 #000000 0 1;
#X floatatom 400 700 5 0 0 0 - - - 0;
#X floatatom 524 699 5 0 0 0 - - - 0;
#X obj 397 740 s drag_start;
#N canvas 895 110 450 300 saved_velocity 0;
#X msg 269 132 set \$1;
#X msg 254 167 29.163;
#X obj 153 105 loadbang;
#X obj 133 196 i;
#X obj 153 130 t b b;
#X obj 269 104 r velocity;
#X obj 249 48 inlet;
#X obj 255 270 outlet;
#X obj 133 223 s default_velocity;
#X connect 0 0 1 0;
#X connect 1 0 3 1;
#X connect 1 0 7 0;
#X connect 2 0 4 0;
#X connect 3 0 8 0;
#X connect 4 0 3 0;
#X connect 4 1 1 0;
#X connect 5 0 0 0;
#X connect 6 0 1 0;
#X restore 171 186 pd saved_velocity;
#X text 118 529 Note Velocity;
#X obj 147 738 s velocity;
#X obj 124 473 r default_velocity;
#X obj 267 472 r default_drag_mult;
#X obj 401 469 r default_drag_start;
#N canvas 658 187 450 300 saved_drag_start 0;
#X msg 269 132 set \$1;
#X msg 254 167 0;
#X obj 153 105 loadbang;
#X obj 133 196 i;
#X obj 153 130 t b b;
#X obj 255 270 outlet;
#X obj 255 83 r drag_start;
#X obj 129 223 s default_drag_start;
#X obj 254 107 t b f;
#X connect 0 0 1 0;
#X connect 1 0 3 1;
#X connect 1 0 5 0;
#X connect 2 0 4 0;
#X connect 3 0 7 0;
#X connect 4 0 3 0;
#X connect 4 1 1 0;
#X connect 6 0 8 0;
#X connect 8 0 1 0;
#X connect 8 1 0 0;
#X restore 931 588 pd saved_drag_start;
#N canvas 853 111 450 300 saved_drag_mult 0;
#X msg 269 132 set \$1;
#X msg 254 167 2.07407;
#X obj 153 105 loadbang;
#X obj 153 130 t b b;
#X obj 255 270 outlet;
#X obj 255 83 r drag_mult;
#X obj 129 223 s default_drag_mult;
#X obj 254 107 t b f;
#X obj 133 196 f;
#X connect 0 0 1 0;
#X connect 1 0 4 0;
#X connect 1 0 8 1;
#X connect 2 0 3 0;
#X connect 3 0 8 0;
#X connect 3 1 1 0;
#X connect 5 0 7 0;
#X connect 7 0 1 0;
#X connect 7 1 0 0;
#X connect 8 0 6 0;
#X restore 774 581 pd saved_drag_mult;
#X text 508 531 CC 1 Output;
#X text 378 529 CC Drag Start;
#X obj 540 107 route 0;
#X msg 541 133 -1;
#X msg 576 132 1;
#X obj 559 157 +;
#X obj 341 310 tgl 16 0 empty empty empty 0 -8 0 10 #fcfcfc #000000 #000000 0 1;
#X obj 627 119 < 0;
#X obj 627 142 sel 1;
#X msg 627 165 0;
#X obj 338 206 t f f;
#X obj 530 322 spigot;
#X obj 563 212 > 1;
#X obj 566 241 sel 1;
#X msg 543 272 0;
#X msg 577 282 1;
#X obj 531 348 bng 16 250 50 0 empty empty empty 0 -8 0 10 #fcfcfc #000000 #000000;
#X obj 554 297 tgl 16 0 empty empty empty 0 -8 0 10 #fcfcfc #000000 #000000 0 1;
#X obj 234 119 t f f;
#X obj 396 265 pipe 5;
#X obj 580 261 pipe 10;
#X text 439 66 Count notes playing and filter fret button changes from triggering a drag reset.;
#X obj 360 263 r lb;
#X obj 973 167 loadbang;
#X obj 973 187 s lb;
#X obj 974 235 r lb;
#X obj 640 264 r lb;
#X obj 633 197 bng 16 250 50 0 empty empty empty 0 -8 0 10 #fcfcfc #000000 #000000;
#X text 245 530 CC Drag Sensitivity;
#X obj 684 145 bng 16 250 50 0 empty empty empty 0 -8 0 10 #fcfcfc #000000 #000000;
#X floatatom 559 184 5 0 0 0 - - - 0;
#X text 287 158 Don't retrigger if multi-touched (disabled);
#X connect 0 0 8 1;
#X connect 1 0 29 0;
#X connect 2 0 8 0;
#X connect 3 0 1 0;
#X connect 3 1 0 0;
#X connect 3 2 2 0;
#X connect 8 0 55 0;
#X connect 9 0 11 0;
#X connect 10 0 11 1;
#X connect 14 0 47 0;
#X connect 15 0 33 0;
#X connect 15 0 50 0;
#X connect 16 0 17 0;
#X connect 16 0 70 0;
#X connect 17 0 9 0;
#X connect 17 1 48 0;
#X connect 19 0 18 0;
#X connect 20 0 18 1;
#X connect 23 0 71 0;
#X connect 23 0 108 0;
#X connect 24 0 25 0;
#X connect 24 1 23 0;
#X connect 25 0 19 0;
#X connect 29 0 8 0;
#X connect 29 1 8 2;
#X connect 31 0 41 0;
#X connect 34 0 31 0;
#X connect 35 0 37 1;
#X connect 35 0 15 0;
#X connect 36 0 38 1;
#X connect 36 0 14 0;
#X connect 37 0 39 0;
#X connect 37 0 50 1;
#X connect 38 0 40 0;
#X connect 38 0 50 3;
#X connect 39 0 56 0;
#X connect 40 0 57 0;
#X connect 42 0 18 2;
#X connect 42 0 30 0;
#X connect 43 0 11 2;
#X connect 47 0 50 0;
#X connect 47 1 50 2;
#X connect 48 0 10 0;
#X connect 49 0 50 0;
#X connect 49 1 37 0;
#X connect 49 1 38 0;
#X connect 50 0 46 0;
#X connect 50 0 51 0;
#X connect 51 0 54 0;
#X connect 52 0 51 1;
#X connect 53 0 54 1;
#X connect 54 0 16 0;
#X connect 55 0 58 0;
#X connect 58 0 35 0;
#X connect 58 1 36 0;
#X connect 59 0 66 0;
#X connect 59 0 69 0;
#X connect 59 0 100 0;
#X connect 60 0 109 0;
#X connect 60 0 63 0;
#X connect 61 0 65 0;
#X connect 62 0 65 0;
#X connect 63 0 96 0;
#X connect 64 0 96 0;
#X connect 65 0 101 0;
#X connect 66 0 61 1;
#X connect 70 0 80 0;
#X connect 71 0 72 0;
#X connect 71 1 82 0;
#X connect 72 0 20 0;
#X connect 73 0 76 0;
#X connect 74 0 75 0;
#X connect 75 0 77 0;
#X connect 76 0 84 0;
#X connect 78 0 79 0;
#X connect 79 0 81 0;
#X connect 82 0 20 0;
#X connect 85 0 73 0;
#X connect 86 0 74 0;
#X connect 87 0 78 0;
#X connect 88 0 53 0;
#X connect 89 0 52 0;
#X connect 92 0 93 0;
#X connect 92 1 94 0;
#X connect 93 0 95 0;
#X connect 94 0 95 0;
#X connect 95 0 120 0;
#X connect 96 0 62 1;
#X connect 97 0 98 0;
#X connect 98 0 119 0;
#X connect 99 0 117 0;
#X connect 99 0 95 1;
#X connect 99 0 95 0;
#X connect 100 0 62 0;
#X connect 100 1 60 0;
#X connect 101 0 106 0;
#X connect 102 0 103 0;
#X connect 103 0 104 0;
#X connect 103 0 110 0;
#X connect 104 0 107 0;
#X connect 105 0 107 0;
#X connect 106 0 49 0;
#X connect 107 0 101 1;
#X connect 108 0 59 0;
#X connect 108 0 101 0;
#X connect 108 1 92 0;
#X connect 109 0 61 0;
#X connect 109 0 64 0;
#X connect 110 0 105 0;
#X connect 112 0 64 0;
#X connect 113 0 114 0;
#X connect 115 0 34 0;
#X connect 116 0 105 0;
#X connect 119 0 99 0;
#X connect 120 0 95 1;
#X connect 120 0 97 0;
#X connect 120 0 102 0;
#X coords 0 -1 1 1 500 230 1 100 500;
#X restore 58 88 pd drag_conrol;
#X text 104 426 Note Velocity: The midi note velocity sent for all notes.;
#X text 103 498 CC Drag Start: Set the initial CC starting value when a new drag is started.;
#X text 60 384 Setup: see README.md;
#X text 61 353 Changes the Nova's default x/y CC output to a single drag-based CC output.;
#X text 68 548 Note: Use cmd+s / ctrl+s to save slider values between sessions.;
#X text 103 458 CC Drag Sensitivity: Increase or decrease how fast the drag changes the CC output.;
#X coords 0 498.5 1 497.5 110 110 0;
