#N canvas 756 49 840 997 10;
#X floatatom 224 139 0 0 0 0 - - - 0;
#X floatatom 204 166 0 0 0 0 - - - 0;
#X floatatom 231 107 0 0 0 0 - - - 0;
#X obj 206 85 ctlin;
#X text 237 165 value;
#X text 262 108 channel;
#X text 250 84 (all controllers \, omni);
#X text 255 139 controller #;
#X obj 162 214 pack 0 0 0;
#X obj 160 287 route 1 20;
#X obj 161 235 route 1;
#X obj 197 402 tgl 15 0 empty empty empty 17 7 0 10 #fcfcfc #000000 #000000 0 1;
#X floatatom 486 693 20 0 0 0 - - - 0;
#X floatatom 522 712 3 0 0 0 - - - 0;
#X obj 507 757 ctlout;
#X text 494 678 value;
#X text 545 709 controller #;
#X obj 278 396 vsl 15 128 127 0 0 0 empty empty empty 0 -9 0 10 #fcfcfc #000000 #000000 0 1;
#X obj 281 555 hsl 128 15 0 127 0 0 empty empty empty -2 -8 0 10 #fcfcfc #000000 #000000 0 1;
#X obj 321 383 route 1 20;
#X obj 281 634 hsl 128 15 0 127 0 0 empty empty empty -2 -8 0 10 #fcfcfc #000000 #000000 0 1;
#X obj 506 590 t f b, f 6;
#X obj 278 695 t f b, f 6;
#X obj 79 521 noteout;
#X floatatom 52 493 3 0 0 0 - - - 0;
#X floatatom 96 493 3 0 0 0 - - - 0;
#X text 45 468 note;
#X text 86 467 velocity;
#X floatatom 59 319 0 0 0 0 - - - 0;
#X obj 44 288 notein;
#X floatatom 42 349 0 0 0 0 - - - 0;
#X text 89 323 velocity;
#X text 94 287 (omni);
#X text 67 351 note;
#X obj 42 415 spigot;
#X obj 99 416 spigot;
#X text 223 609 Scale x;
#X obj 252 866 noteout;
#X obj 283 807 == 0;
#X obj 250 828 spigot;
#X obj 188 349 expr (\$1 <= $i1) && ($i1 < \$2) && (\$3 <= $i2) && ($i2 < \$4);
#X obj 191 189 t b f;
#X text 323 796 Send every note off to all channels. (Workaround to make sure notes are turned off even if the touch is dragged outside the region.);
#X text 486 368 Scale y;
#X obj 487 418 vsl 15 128 127 0 0 0 empty empty empty 0 -9 0 10 #fcfcfc #000000 #000000 0 1;
#X obj 258 780 notein;
#X text 196 331 Check if x & y are in range;
#X obj 118 500 r channel_\$5;
#X obj 291 846 r channel_\$5;
#X obj 540 736 r channel_\$5;
#X floatatom 135 521 5 0 0 0 - - - 0;
#X text 144 23 Args: (x_min \, x_max \, y_min \, y_max \, output_channel);
#X text 144 40 Note: Ranges go from 0 to 127 The origin is the corner closest to small horn.;
#X text 177 6 ( \$1 \, \$2 \, \$3 \, \$4 \, \$5);
#X obj 154 309 t b f;
#X obj 70 672 tgl 80 0 empty empty empty 17 7 0 10 #fcfcfc #2840c8 #fcfcfc 0 1;
#X obj 73 704 hsl 75 15 0 127 0 0 empty empty empty -2 -8 0 10 #fcfcfc #000000 #000000 0 1;
#X obj 103 674 vsl 15 75 127 0 0 0 empty empty empty 0 -9 0 10 #fcfcfc #000000 #000000 0 1;
#X msg 146 632 color 8;
#X obj 137 583 route 0 1;
#X msg 139 609 color 0;
#X obj 63 447 bng 15 250 50 0 empty empty empty 17 7 0 10 #fcfcfc #000000 #000000;
#X obj 70 602 > 0;
#X obj 70 624 select 1;
#X text 30 575 Graphics;
#X msg 174 656 0;
#X obj 229 667 spigot;
#X obj 187 549 spigot;
#X obj 500 226 s channel_\$5;
#X floatatom 500 206 5 0 0 0 - - - 0;
#X obj 500 163 loadbang;
#X text 538 205 MIDI output channel;
#X obj 500 184 i \$5;
#X floatatom 299 586 5 0 0 0 - - - 0;
#X obj 278 608 expr (127.0/(\$2 - \$1))*($f1 - \$1);
#X obj 487 390 expr (127.0/(\$4 - \$3))*($f1 - \$3);
#X floatatom 307 747 5 0 0 0 - - - 0;
#X floatatom 539 638 5 0 0 0 - - - 0;
#X obj 330 668 spigot;
#X obj 569 502 loadbang;
#X obj 569 548 tgl 16 0 empty empty empty 0 -8 0 10 #fcfcfc #000000 #000000 0 1;
#X obj 648 493 bng 16 250 50 0 empty empty empty 0 -8 0 10 #fcfcfc #000000 #000000;
#X obj 569 527 expr \$6 >= 0;
#X obj 307 723 expr if (\$6 > 0 \, \$6 \, 20);
#X obj 539 614 expr if (\$7 > 0 \, \$7 \, 1);
#X obj 676 661 loadbang;
#X obj 676 709 tgl 16 0 empty empty empty 0 -8 0 10 #fcfcfc #000000 #000000 0 1;
#X obj 755 652 bng 16 250 50 0 empty empty empty 0 -8 0 10 #fcfcfc #000000 #000000;
#X obj 676 686 expr \$7 >= 0;
#X obj 473 560 spigot;
#X obj 343 286 print one;
#X obj 260 293 print two;
#X obj 252 253 t list list;
#X connect 0 0 8 1;
#X connect 1 0 41 0;
#X connect 2 0 8 0;
#X connect 3 0 1 0;
#X connect 3 1 0 0;
#X connect 3 2 2 0;
#X connect 8 0 10 0;
#X connect 9 0 54 0;
#X connect 9 1 40 0;
#X connect 10 0 92 0;
#X connect 10 0 9 0;
#X connect 11 0 34 1;
#X connect 11 0 35 1;
#X connect 11 0 59 0;
#X connect 11 0 66 1;
#X connect 11 0 67 1;
#X connect 12 0 14 0;
#X connect 13 0 14 1;
#X connect 17 0 75 0;
#X connect 18 0 73 0;
#X connect 18 0 74 0;
#X connect 19 0 17 0;
#X connect 19 1 18 0;
#X connect 20 0 78 0;
#X connect 21 0 12 0;
#X connect 21 1 84 0;
#X connect 22 0 12 0;
#X connect 22 1 83 0;
#X connect 24 0 23 0;
#X connect 25 0 23 1;
#X connect 25 0 62 0;
#X connect 28 0 35 0;
#X connect 29 0 30 0;
#X connect 29 1 28 0;
#X connect 30 0 34 0;
#X connect 34 0 24 0;
#X connect 34 0 61 0;
#X connect 35 0 25 0;
#X connect 38 0 39 1;
#X connect 38 0 65 0;
#X connect 39 0 37 0;
#X connect 40 0 11 0;
#X connect 41 0 8 0;
#X connect 41 1 8 2;
#X connect 44 0 89 0;
#X connect 45 0 39 0;
#X connect 45 1 38 0;
#X connect 45 1 37 1;
#X connect 47 0 23 2;
#X connect 47 0 50 0;
#X connect 48 0 37 2;
#X connect 49 0 14 2;
#X connect 54 0 40 0;
#X connect 54 1 40 1;
#X connect 58 0 55 0;
#X connect 58 0 57 0;
#X connect 58 0 56 0;
#X connect 59 0 60 0;
#X connect 59 1 58 0;
#X connect 60 0 55 0;
#X connect 60 0 57 0;
#X connect 60 0 56 0;
#X connect 62 0 63 0;
#X connect 63 0 55 0;
#X connect 65 0 55 0;
#X connect 66 0 56 0;
#X connect 66 0 22 0;
#X connect 67 0 57 0;
#X connect 67 0 21 0;
#X connect 69 0 68 0;
#X connect 70 0 72 0;
#X connect 72 0 69 0;
#X connect 74 0 20 0;
#X connect 75 0 44 0;
#X connect 76 0 13 0;
#X connect 77 0 13 0;
#X connect 78 0 66 0;
#X connect 79 0 82 0;
#X connect 80 0 78 1;
#X connect 81 0 82 0;
#X connect 82 0 80 0;
#X connect 83 0 76 0;
#X connect 84 0 77 0;
#X connect 85 0 88 0;
#X connect 86 0 89 1;
#X connect 87 0 88 0;
#X connect 88 0 86 0;
#X connect 89 0 67 0;
#X connect 92 0 19 0;
#X connect 92 0 91 0;
#X connect 92 1 9 0;
#X connect 92 1 90 0;
#X coords 0 -1 1 1 179 112 1 50 650;
