#N canvas 398 25 740 630 10;
#N canvas 154 234 1114 788 drag_conrol 0;
#X floatatom 696 123 0 0 0 0 - - - 0;
#X floatatom 676 150 0 0 0 0 - - - 0;
#X floatatom 703 91 0 0 0 0 - - - 0;
#X obj 678 69 ctlin;
#X text 709 149 value;
#X text 734 92 channel;
#X text 722 68 (all controllers \, omni);
#X text 727 123 controller #;
#X obj 634 198 pack 0 0 0;
#X floatatom 736 648 5 0 0 0 - - - 0;
#X floatatom 769 672 3 0 0 0 - - - 0;
#X obj 754 717 ctlout;
#X text 744 633 value;
#X text 792 669 controller #;
#X obj 792 293 vsl 15 128 127 0 0 0 empty empty empty 0 -9 0 10 #fcfcfc #000000 #000000 0 1;
#X obj 641 453 hsl 128 15 0 127 0 0 empty empty empty -2 -8 0 10 #fcfcfc #000000 #000000 0 1;
#X obj 648 602 hsl 128 15 0 127 0 0 empty empty empty -2 -8 0 10 #fcfcfc #000000 #000000 0 1;
#X obj 645 630 t f b, f 6;
#X obj 193 348 noteout;
#X floatatom 166 320 3 0 0 0 - - - 0;
#X floatatom 210 320 3 0 0 0 - - - 0;
#X text 159 295 note;
#X text 207 302 velocity;
#X floatatom 245 123 0 0 0 0 - - - 0;
#X obj 230 92 notein;
#X floatatom 208 143 0 0 0 0 - - - 0;
#X text 275 127 velocity;
#X text 280 91 (omni);
#X text 214 160 note;
#X obj 663 173 t b f;
#X floatatom 249 348 5 0 0 0 - - - 0;
#X floatatom 869 184 5 0 0 0 - - - 0;
#X obj 869 141 loadbang;
#X text 907 183 MIDI output channel;
#X floatatom 656 477 5 0 0 0 - - - 0;
#X obj 869 162 i 1;
#X floatatom 638 301 5 0 0 0 - - - 0;
#X floatatom 690 303 5 0 0 0 - - - 0;
#X obj 656 330 i;
#X obj 699 326 i;
#X floatatom 654 363 5 0 0 0 - - - 0;
#X floatatom 708 358 5 0 0 0 - - - 0;
#X obj 869 204 s channel;
#X obj 232 327 r channel;
#X obj 787 696 r channel;
#X text 794 267 y;
#X text 612 451 x, f 2;
#X floatatom 606 525 5 0 0 0 - - - 0;
#X obj 788 465 t b f;
#X msg 681 656 1;
#X obj 592 312 t b b;
#X obj 642 503 expr 1.0*sqrt(($f2 -$f1)*($f2 - $f1) + ($f4 - $f3)*($f4 - $f3)), f 64;
#X obj 643 554 * 1;
#X floatatom 684 558 5 0 0 0 - - - 0;
#X floatatom 844 564 5 0 0 0 - - - 0;
#X obj 643 579 + 30;
#X obj 634 226 route 1;
#X obj 644 433 hsl 128 15 0 127 0 0 empty empty empty -2 -8 0 10 #fcfcfc #000000 #000000 0 1;
#X obj 760 293 vsl 15 128 127 0 0 0 empty empty empty 0 -9 0 10 #fcfcfc #000000 #000000 0 1;
#X obj 634 264 route 20 1;
#X floatatom 430 164 5 0 0 0 - - - 0;
#X obj 441 217 sel 0;
#X obj 443 255 pipe 10;
#X obj 466 296 spigot;
#X obj 367 300 spigot;
#X msg 405 243 0;
#X msg 421 280 1;
#X obj 401 342 bng 16 250 50 0 empty empty empty 0 -8 0 10 #fcfcfc #000000 #000000;
#X obj 530 245 == 0;
#X text 467 317 Note-off;
#X text 344 326 Note-on;
#X obj 368 203 bng 16 250 50 0 empty empty empty 0 -8 0 10 #fcfcfc #000000 #000000;
#X obj 524 552 vsl 30 136 0 127 0 0 empty empty empty 0 -9 0 10 #0400ff #ffffff #000000 0 1;
#X obj 297 179 sel 0;
#X msg 269 281 0;
#X obj 147 558 vsl 16 136 0 127 0 0 empty empty empty 0 -9 0 10 #fcfcfc #000000 #000000 0 1;
#X obj 275 556 vsl 16 136 0 8 0 0 empty empty empty 0 -9 0 10 #fcfcfc #000000 #000000 0 1;
#X floatatom 275 700 5 0 0 0 - - - 0;
#X floatatom 147 700 5 0 0 0 - - - 0;
#X obj 275 738 s drag_mult;
#X obj 397 557 vsl 16 136 0 127 0 0 empty empty empty 0 -9 0 10 #fcfcfc #000000 #000000 0 1;
#X floatatom 397 701 5 0 0 0 - - - 0;
#X floatatom 524 696 5 0 0 0 - - - 0;
#X obj 397 740 s drag_start;
#N canvas 895 110 450 300 saved_velocity 0;
#X msg 269 132 set \$1;
#X msg 254 167 40;
#X obj 153 105 loadbang;
#X obj 133 196 i;
#X obj 153 130 t b b;
#X obj 269 104 r velocity;
#X obj 249 48 inlet;
#X obj 255 270 outlet;
#X obj 133 223 s default_velocity;
#X connect 0 0 1 0;
#X connect 1 0 3 1;
#X connect 1 0 7 0;
#X connect 2 0 4 0;
#X connect 3 0 8 0;
#X connect 4 0 3 0;
#X connect 4 1 1 0;
#X connect 5 0 0 0;
#X connect 6 0 1 0;
#X restore 207 250 pd saved_velocity;
#X text 118 529 Note Velocity;
#X obj 147 738 s velocity;
#X obj 124 473 r default_velocity;
#X obj 267 472 r default_drag_mult;
#X obj 401 469 r default_drag_start;
#N canvas 658 187 450 300 saved_drag_start 0;
#X msg 269 132 set \$1;
#X msg 254 167 30;
#X obj 153 105 loadbang;
#X obj 133 196 i;
#X obj 153 130 t b b;
#X obj 255 270 outlet;
#X obj 255 83 r drag_start;
#X obj 129 223 s default_drag_start;
#X obj 254 107 t b f;
#X connect 0 0 1 0;
#X connect 1 0 3 1;
#X connect 1 0 5 0;
#X connect 2 0 4 0;
#X connect 3 0 7 0;
#X connect 4 0 3 0;
#X connect 4 1 1 0;
#X connect 6 0 8 0;
#X connect 8 0 1 0;
#X connect 8 1 0 0;
#X restore 843 542 pd saved_drag_start;
#N canvas 853 111 450 300 saved_drag_mult 0;
#X msg 269 132 set \$1;
#X msg 254 167 1.6;
#X obj 153 105 loadbang;
#X obj 153 130 t b b;
#X obj 255 270 outlet;
#X obj 255 83 r drag_mult;
#X obj 129 223 s default_drag_mult;
#X obj 254 107 t b f;
#X obj 133 196 f;
#X connect 0 0 1 0;
#X connect 1 0 4 0;
#X connect 1 0 8 1;
#X connect 2 0 3 0;
#X connect 3 0 8 0;
#X connect 3 1 1 0;
#X connect 5 0 7 0;
#X connect 7 0 1 0;
#X connect 7 1 0 0;
#X connect 8 0 6 0;
#X restore 686 535 pd saved_drag_mult;
#X text 508 528 CC 1 Output;
#X text 245 530 CC Drag Multiplier;
#X text 375 530 CC Drag Start;
#X connect 0 0 8 1;
#X connect 1 0 29 0;
#X connect 2 0 8 0;
#X connect 3 0 1 0;
#X connect 3 1 0 0;
#X connect 3 2 2 0;
#X connect 8 0 56 0;
#X connect 9 0 11 0;
#X connect 10 0 11 1;
#X connect 14 0 48 0;
#X connect 15 0 34 0;
#X connect 15 0 51 0;
#X connect 16 0 17 0;
#X connect 16 0 72 0;
#X connect 17 0 9 0;
#X connect 17 1 49 0;
#X connect 19 0 18 0;
#X connect 20 0 18 1;
#X connect 23 0 60 0;
#X connect 23 0 73 0;
#X connect 24 0 25 0;
#X connect 24 1 23 0;
#X connect 25 0 19 0;
#X connect 29 0 8 0;
#X connect 29 1 8 2;
#X connect 31 0 42 0;
#X connect 32 0 35 0;
#X connect 35 0 31 0;
#X connect 36 0 38 1;
#X connect 36 0 15 0;
#X connect 37 0 39 1;
#X connect 37 0 14 0;
#X connect 38 0 40 0;
#X connect 38 0 51 1;
#X connect 39 0 41 0;
#X connect 39 0 51 3;
#X connect 40 0 57 0;
#X connect 41 0 58 0;
#X connect 43 0 18 2;
#X connect 43 0 30 0;
#X connect 44 0 11 2;
#X connect 48 0 51 0;
#X connect 48 1 51 2;
#X connect 49 0 10 0;
#X connect 50 0 51 0;
#X connect 50 1 38 0;
#X connect 50 1 39 0;
#X connect 51 0 47 0;
#X connect 51 0 52 0;
#X connect 52 0 55 0;
#X connect 53 0 52 1;
#X connect 54 0 55 1;
#X connect 55 0 16 0;
#X connect 56 0 59 0;
#X connect 59 0 36 0;
#X connect 59 1 37 0;
#X connect 60 0 61 0;
#X connect 60 0 64 0;
#X connect 60 0 68 0;
#X connect 60 0 71 0;
#X connect 61 0 62 0;
#X connect 61 0 65 0;
#X connect 62 0 63 0;
#X connect 62 0 66 0;
#X connect 63 0 67 0;
#X connect 64 0 67 0;
#X connect 65 0 64 1;
#X connect 66 0 64 1;
#X connect 67 0 50 0;
#X connect 68 0 63 1;
#X connect 72 0 82 0;
#X connect 73 0 74 0;
#X connect 73 1 84 0;
#X connect 74 0 20 0;
#X connect 75 0 78 0;
#X connect 76 0 77 0;
#X connect 77 0 79 0;
#X connect 78 0 86 0;
#X connect 80 0 81 0;
#X connect 81 0 83 0;
#X connect 84 0 20 0;
#X connect 87 0 75 0;
#X connect 88 0 76 0;
#X connect 89 0 80 0;
#X connect 90 0 54 0;
#X connect 91 0 53 0;
#X coords 0 -1 1 1 500 230 1 100 500;
#X restore 81 83 pd drag_conrol;
#X coords 0 630 1 629 110 110 0;
